<?xml version="1.0" encoding="UTF-8" standalone="no"?>
<svg width="291px" height="76px" viewBox="0 0 291 76" version="1.1" xmlns="http://www.w3.org/2000/svg" xmlns:xlink="http://www.w3.org/1999/xlink">
    <!-- Generator: Sketch 3.8.2 (29753) - http://www.bohemiancoding.com/sketch -->
    <title>Group 4</title>
    <desc>Created with Sketch.</desc>
    <defs>
        <polygon id="path-1" points="40.0790105 0.338 0.06 0.338 0.06 75.999 80.0980209 75.999 80.0980209 0.338 40.0790105 0.338"></polygon>
    </defs>
    <g id="Page-1" stroke="none" stroke-width="1" fill="none" fill-rule="evenodd">
        <g id="Group" transform="translate(-25.000000, -339.000000)">
            <g id="Group-2" transform="translate(0.000000, 1.000000)">
                <g id="Group-3" transform="translate(0.000000, 317.000000)">
                    <g id="Group-4" transform="translate(25.000000, 21.000000)">
                        <text id="Quizflow" font-family="CenturyGothic-Bold, Century Gothic" font-size="50" font-weight="bold" line-spacing="16" letter-spacing="0.300000012" fill="#FFFFFF">
                            <tspan x="80" y="89">Quizflo</tspan>
                            <tspan x="247.06582" y="89">w</tspan>
                        </text>
                        <g id="fox-frontal-head">
                            <path d="M40.137,56.913 L39.984,56.924 C39.547,56.959 35.652,57.295 33.223,58.417 L32.059,58.952 L32.121,60.237 C32.133,60.459 32.254,62.491 33.18,64.6 C34.547,67.713 37.016,69.428 40.133,69.428 C43.254,69.428 45.723,67.713 47.09,64.6 C48.012,62.491 48.137,60.459 48.148,60.237 L48.211,58.952 L47.047,58.417 C44.617,57.295 40.719,56.959 40.285,56.924 L40.137,56.913 Z M43.609,63.073 C43.129,64.17 42.242,65.627 40.137,65.627 C39.141,65.627 37.703,65.37 36.695,63.147 C36.426,62.545 36.246,61.936 36.129,61.413 C37.566,61.026 39.301,60.803 40.137,60.729 C40.969,60.803 42.707,61.026 44.141,61.413 C44.031,61.913 43.863,62.495 43.609,63.073 L43.609,63.073 Z" id="Fill-1" fill="#FFFFFF"></path>
                            <path d="M17.039,22.088 C17.039,22.088 23.074,16.866 27.965,14.874 C27.965,14.874 22.137,10.6 16.105,8.225 C16.105,8.225 14.961,17.53 17.039,22.088 L17.039,22.088 Z" id="Fill-2" fill="#FFFFFF"></path>
                            <g id="Group-6">
                                <mask id="mask-2" fill="white">
                                    <use xlink:href="#path-1"></use>
                                </mask>
                                <g id="Clip-4"></g>
                                <path d="M52.133,14.874 C57.023,16.866 63.055,22.088 63.055,22.088 C65.137,17.53 63.992,8.225 63.992,8.225 C57.957,10.6 52.133,14.874 52.133,14.874 L52.133,14.874 Z" id="Fill-3" fill="#FFFFFF" mask="url(#mask-2)"></path>
                                <path d="M73.227,30.643 C70.695,28.221 69.391,25.827 69.457,23.725 C69.496,22.44 70.043,21.667 70.047,21.663 L70.422,21.202 L70.469,20.612 C70.48,20.475 70.738,17.213 70.723,13.284 C70.703,7.85 70.168,3.928 69.133,1.635 L68.551,0.338 L67.145,0.53 C66.781,0.581 58.344,1.803 48.926,8.866 C47.434,8.624 44.145,8.182 40.047,8.174 C35.953,8.182 32.664,8.624 31.172,8.866 C21.754,1.803 13.316,0.581 12.953,0.53 L11.547,0.338 L10.965,1.635 C9.93,3.928 9.395,7.85 9.375,13.284 C9.359,17.209 9.617,20.475 9.629,20.612 L9.676,21.202 L10.051,21.663 C10.055,21.667 10.602,22.44 10.641,23.721 C10.707,25.827 9.402,28.221 6.871,30.643 C-0.855,38.034 0.008,51.069 0.047,51.62 L0.43,56.803 C0.43,56.803 4.273,51.104 6.461,50.026 C5.398,54.905 8.398,61.03 8.398,61.03 C8.398,61.03 10.062,57.413 11.91,55.67 C14.578,60.295 19.68,62.936 19.93,63.065 L20.387,63.295 L20.902,63.268 C23.508,63.116 25.961,63.932 27.176,64.424 C27.445,65.85 27.566,67.116 27.418,67.917 C27.094,69.694 27.488,71.323 28.57,72.62 C30.465,74.893 34.246,75.999 40.137,75.999 C46.023,75.999 49.805,74.893 51.699,72.62 C52.781,71.319 53.176,69.694 52.852,67.917 C52.699,67.1 52.832,65.807 53.109,64.346 C54.375,63.854 56.719,63.124 59.195,63.268 L59.711,63.295 L60.168,63.061 C60.418,62.936 65.52,60.292 68.188,55.67 C70.035,57.409 71.699,61.03 71.699,61.03 C71.699,61.03 74.699,54.905 73.637,50.026 C75.824,51.104 79.668,56.803 79.668,56.803 L80.051,51.62 C80.09,51.069 80.953,38.038 73.227,30.643 L73.227,30.643 Z M69.906,52.104 C69.109,51.436 68.5,51.065 68.449,51.03 L66.383,49.776 C66.383,49.776 64.16,56.635 58.848,59.448 C57.145,59.417 55.543,59.674 54.199,60.014 C54.527,58.913 54.871,57.881 55.176,57.049 L55.508,56.143 L54.977,55.342 C54.953,55.311 52.832,52.096 51.105,48.194 C50.574,46.991 50.141,45.854 49.805,44.799 C50.223,44.897 50.66,44.948 51.113,44.948 C51.898,44.948 52.68,44.799 53.434,44.499 C54.758,43.975 55.848,43.049 56.508,41.889 C57.23,40.612 57.355,39.213 56.852,37.94 C56.547,37.17 56.035,36.088 55.379,36.088 L64.195,36.088 L64.195,32.088 L54.316,32.088 C52.316,32.088 50.609,32.452 49.246,33.104 C47.855,33.772 46.801,34.78 46.105,36.073 C44.469,39.127 44.98,43.725 47.629,49.725 C48.969,52.756 50.504,55.366 51.289,56.631 C50.465,59.034 48.5,65.292 49.109,68.6 C49.27,69.459 49.016,69.897 48.777,70.182 C47.715,71.463 44.562,72.198 40.137,72.198 C35.707,72.198 32.559,71.463 31.492,70.182 C31.254,69.897 31,69.459 31.16,68.604 C31.77,65.292 29.805,59.038 28.98,56.631 C29.766,55.37 31.301,52.764 32.641,49.729 C35.289,43.733 35.801,39.143 34.164,36.088 C33.469,34.795 32.414,33.768 31.023,33.104 C29.66,32.452 27.953,32.088 25.953,32.088 L16.195,32.088 L16.195,36.088 L24.98,36.088 C24.324,36.088 23.812,37.167 23.508,37.936 C23.004,39.213 23.129,40.643 23.852,41.92 C24.512,43.081 25.602,43.995 26.926,44.514 C27.68,44.815 28.461,44.956 29.246,44.956 C29.664,44.956 30.07,44.909 30.457,44.823 C30.129,45.862 29.703,46.971 29.184,48.151 C27.461,52.057 25.316,55.311 25.293,55.342 L24.762,56.143 L25.094,57.045 C25.402,57.893 25.754,58.944 26.086,60.061 C24.703,59.698 23.031,59.413 21.25,59.448 C15.938,56.631 13.711,49.776 13.711,49.776 L11.648,51.03 C11.594,51.061 10.984,51.436 10.191,52.1 C10.062,49.288 11.547,45.631 11.547,45.631 C11.547,45.631 7.73,44.706 3.938,47.077 C4.293,43.088 5.523,37.194 9.5,33.385 C12.879,30.155 14.539,26.862 14.441,23.604 C14.387,21.823 13.793,20.522 13.379,19.823 C13.141,16.405 12.902,8.768 13.953,4.612 C16.73,5.295 22.938,7.276 29.512,12.381 L30.199,12.913 L31.051,12.745 C31.09,12.737 34.926,11.983 40.047,11.975 C45.168,11.983 49.008,12.737 49.043,12.745 L49.895,12.913 L50.582,12.381 C57.16,7.276 63.367,5.299 66.141,4.616 C67.195,8.772 66.957,16.409 66.715,19.827 C66.301,20.526 65.711,21.827 65.656,23.608 C65.555,26.866 67.219,30.159 70.598,33.389 C74.574,37.194 75.801,43.092 76.156,47.077 C72.367,44.709 68.547,45.631 68.547,45.631 C68.547,45.631 70.035,49.288 69.906,52.104 Z M51.254,38.983 C51.547,38.87 51.855,38.807 52.145,38.807 C52.672,38.807 53.121,39.01 53.234,39.299 C53.406,39.741 52.91,40.53 52.004,40.885 C51.711,40.999 51.402,41.061 51.113,41.061 C50.586,41.061 50.141,40.858 50.023,40.569 C49.852,40.127 50.352,39.342 51.254,38.983 L51.254,38.983 Z M30.336,40.569 C30.223,40.858 29.773,41.061 29.246,41.061 C28.957,41.061 28.648,41.002 28.355,40.885 C27.863,40.69 27.457,40.358 27.238,39.975 C27.156,39.827 27.031,39.542 27.125,39.299 C27.242,39.01 27.688,38.807 28.215,38.807 C28.504,38.807 28.812,38.866 29.105,38.983 C30.008,39.342 30.508,40.127 30.336,40.569 L30.336,40.569 Z" id="Fill-5" fill="#FFFFFF" mask="url(#mask-2)"></path>
                            </g>
                        </g>
                    </g>
                </g>
            </g>
        </g>
    </g>
</svg>